<?xml version="1.0" encoding="utf-8"?>
<!-- Generator: Adobe Illustrator 27.3.1, SVG Export Plug-In . SVG Version: 6.00 Build 0)  -->
<svg version="1.1" id="Layer_1" xmlns="http://www.w3.org/2000/svg" xmlns:xlink="http://www.w3.org/1999/xlink" x="0px" y="0px"
	 viewBox="0 0 292 166" style="enable-background:new 0 0 292 166;" xml:space="preserve">
<style type="text/css">
	.st0{fill:#FFFFFF;}
	.st1{clip-path:url(#SVGID_00000181789146071520401260000016905378816425575605_);}
	.st2{fill:#FFBE40;}
</style>
<path class="st0" d="M24.3,141.9h5.2c-0.1,1.3-0.6,2.3-1.4,3.1c-0.8,0.8-1.9,1.1-3.1,1.1c-0.9,0-1.7-0.2-2.5-0.6
	c-0.7-0.4-1.3-1-1.7-1.8c-0.4-0.8-0.6-1.7-0.6-2.7c0-1,0.2-1.9,0.6-2.7c0.4-0.8,1-1.4,1.7-1.8c0.7-0.4,1.6-0.6,2.5-0.6
	c0.9,0,1.7,0.2,2.4,0.6c0.7,0.4,1.2,1,1.6,1.8h2c-0.5-1.2-1.3-2.2-2.3-2.9c-1.1-0.7-2.3-1-3.7-1c-1.2,0-2.3,0.3-3.3,0.9
	c-1,0.6-1.8,1.4-2.4,2.4c-0.6,1-0.9,2.2-0.9,3.4c0,1.3,0.3,2.4,0.9,3.4c0.6,1,1.4,1.8,2.4,2.4c1,0.6,2.1,0.8,3.3,0.8
	c1.1,0,2.2-0.3,3.1-0.8c0.9-0.5,1.7-1.2,2.3-2.1c0.6-0.9,0.9-1.9,1-3v-1.3h-7V141.9z"/>
<path class="st0" d="M40.7,137.7c-0.8-0.4-1.7-0.7-2.6-0.7c-1,0-1.9,0.2-2.6,0.7c-0.8,0.4-1.4,1-1.9,1.9c-0.4,0.8-0.7,1.7-0.7,2.8
	c0,1.1,0.2,2,0.7,2.8c0.4,0.8,1.1,1.4,1.8,1.9c0.8,0.4,1.7,0.7,2.6,0.7c1,0,1.9-0.2,2.7-0.7c0.8-0.4,1.4-1.1,1.9-1.9
	c0.5-0.8,0.7-1.7,0.7-2.8c0-1.1-0.2-2-0.7-2.8C42.1,138.8,41.5,138.2,40.7,137.7z M41,144.5c-0.3,0.6-0.8,1-1.3,1.3
	c-0.5,0.3-1.1,0.4-1.7,0.4c-0.6,0-1.2-0.1-1.7-0.4c-0.5-0.3-0.9-0.7-1.2-1.3c-0.3-0.6-0.4-1.3-0.4-2.1c0-0.8,0.2-1.5,0.5-2.1
	c0.3-0.6,0.7-1,1.2-1.3c0.5-0.3,1.1-0.4,1.7-0.4c0.6,0,1.2,0.1,1.7,0.4c0.5,0.3,0.9,0.7,1.3,1.3c0.3,0.6,0.5,1.3,0.5,2.1
	C41.5,143.2,41.4,143.9,41,144.5z"/>
<path class="st0" d="M52.7,137.7c-0.8-0.4-1.7-0.7-2.6-0.7c-1,0-1.9,0.2-2.6,0.7c-0.8,0.4-1.4,1-1.9,1.9c-0.4,0.8-0.7,1.7-0.7,2.8
	c0,1.1,0.2,2,0.7,2.8c0.4,0.8,1.1,1.4,1.8,1.9c0.8,0.4,1.7,0.7,2.6,0.7c1,0,1.9-0.2,2.7-0.7c0.8-0.4,1.4-1.1,1.9-1.9
	c0.5-0.8,0.7-1.7,0.7-2.8c0-1.1-0.2-2-0.7-2.8C54.1,138.8,53.5,138.2,52.7,137.7z M53,144.5c-0.3,0.6-0.8,1-1.3,1.3
	c-0.5,0.3-1.1,0.4-1.7,0.4c-0.6,0-1.2-0.1-1.7-0.4c-0.5-0.3-0.9-0.7-1.2-1.3c-0.3-0.6-0.4-1.3-0.4-2.1c0-0.8,0.2-1.5,0.5-2.1
	c0.3-0.6,0.7-1,1.2-1.3c0.5-0.3,1.1-0.4,1.7-0.4c0.6,0,1.2,0.1,1.7,0.4c0.5,0.3,0.9,0.7,1.3,1.3c0.3,0.6,0.5,1.3,0.5,2.1
	C53.5,143.2,53.4,143.9,53,144.5z"/>
<path class="st0" d="M65.6,139.1c-0.3-0.6-0.8-1.1-1.5-1.5c-0.7-0.4-1.4-0.6-2.3-0.6c-0.9,0-1.7,0.2-2.5,0.7
	c-0.7,0.4-1.3,1.1-1.7,1.9c-0.4,0.8-0.6,1.7-0.6,2.8c0,1,0.2,2,0.6,2.8c0.4,0.8,1,1.4,1.7,1.9c0.7,0.5,1.6,0.7,2.5,0.7
	c0.9,0,1.7-0.2,2.3-0.6c0.7-0.4,1.2-0.9,1.5-1.5v2.2c0,1.1-0.3,1.9-0.9,2.5c-0.6,0.6-1.3,0.9-2.3,0.9c-0.8,0-1.5-0.2-2.1-0.6
	c-0.6-0.4-1-0.9-1.2-1.5h-1.7c0.2,1.1,0.7,2,1.6,2.6c0.9,0.6,2,1,3.4,1c1,0,1.8-0.2,2.6-0.6c0.7-0.4,1.3-1,1.7-1.7
	c0.4-0.7,0.6-1.6,0.6-2.5v-10.5h-1.7V139.1z M65.1,144.4c-0.3,0.6-0.7,1-1.3,1.3c-0.5,0.3-1.1,0.4-1.7,0.4c-0.6,0-1.2-0.2-1.7-0.4
	c-0.5-0.3-0.9-0.8-1.3-1.3c-0.3-0.6-0.5-1.3-0.5-2.1c0-0.8,0.2-1.4,0.5-2c0.3-0.6,0.7-1,1.3-1.3c0.5-0.3,1.1-0.5,1.7-0.5
	c0.6,0,1.2,0.2,1.7,0.5c0.5,0.3,1,0.7,1.3,1.3c0.3,0.6,0.5,1.2,0.5,2C65.6,143.1,65.4,143.8,65.1,144.4z"/>
<rect x="70.2" y="133.7" class="st0" width="1.7" height="13.9"/>
<path class="st0" d="M81.8,137.7c-0.7-0.4-1.6-0.6-2.6-0.6c-1,0-1.9,0.2-2.7,0.7c-0.8,0.4-1.4,1-1.8,1.8c-0.4,0.8-0.6,1.7-0.6,2.8
	c0,1.1,0.2,2,0.7,2.8c0.4,0.8,1,1.4,1.8,1.9c0.8,0.4,1.6,0.7,2.6,0.7c1.2,0,2.2-0.3,3.1-0.9c0.8-0.6,1.4-1.4,1.6-2.4h-1.8
	c-0.2,0.6-0.5,1-1,1.4c-0.5,0.3-1.1,0.5-1.8,0.5c-0.9,0-1.7-0.3-2.3-0.8c-0.6-0.6-1-1.4-1-2.4h8.2c0-0.4,0.1-0.7,0.1-1
	c0-0.9-0.2-1.8-0.6-2.5C83.1,138.7,82.6,138.1,81.8,137.7z M75.9,141.6c0.1-1,0.4-1.7,1-2.3c0.6-0.5,1.3-0.8,2.2-0.8
	c0.6,0,1.1,0.1,1.6,0.4c0.5,0.2,0.9,0.6,1.2,1.1c0.3,0.5,0.4,1,0.4,1.7H75.9z"/>
<path class="st0" d="M100.7,144.6c0.3-0.4,0.5-0.8,0.8-1.2l1.5-2.7h-1.8l-1.3,2.1l-0.3,0.5l-3.9-3.9c-0.5-0.5-0.8-0.9-1-1.3
	c-0.2-0.3-0.3-0.7-0.3-1.1c0-0.4,0.1-0.8,0.4-1.1c0.3-0.3,0.7-0.4,1.2-0.4c0.5,0,0.9,0.1,1.2,0.4c0.3,0.3,0.4,0.7,0.4,1.2h1.7
	c0-0.6-0.1-1.1-0.3-1.6c-0.2-0.5-0.6-0.8-1.1-1.1c-0.5-0.3-1.1-0.4-1.8-0.4c-0.7,0-1.3,0.1-1.8,0.4c-0.5,0.2-0.9,0.6-1.2,1
	c-0.3,0.4-0.4,0.9-0.4,1.5c0,0.5,0.1,0.9,0.3,1.3c0.2,0.4,0.5,0.8,0.9,1.3c-1,0.4-1.8,1-2.3,1.6c-0.5,0.7-0.8,1.5-0.8,2.4
	c0,0.8,0.2,1.5,0.6,2.1c0.4,0.6,0.9,1.1,1.6,1.4c0.7,0.3,1.5,0.5,2.4,0.5c0.9,0,1.7-0.2,2.5-0.5c0.7-0.3,1.4-0.8,2-1.5l1.7,1.7h2.2
	L100.7,144.6z M97,145.9c-0.5,0.3-1.1,0.4-1.8,0.4c-0.8,0-1.5-0.2-2.1-0.7c-0.5-0.5-0.8-1.1-0.8-1.8c0-1.3,0.8-2.3,2.4-2.9l3.8,3.9
	C98.1,145.2,97.6,145.6,97,145.9z"/>
<path class="st0" d="M117.7,140.7c0.5-0.7,0.8-1.5,0.8-2.4c0-0.7-0.2-1.4-0.5-2c-0.3-0.6-0.8-1-1.5-1.4c-0.7-0.3-1.5-0.5-2.5-0.5
	h-4.2v13.1h1.7v-5.3h2.1l3.1,5.3h2l-3.3-5.5C116.4,141.8,117.2,141.4,117.7,140.7z M111.4,140.8v-4.9h2.5c0.9,0,1.6,0.2,2.1,0.6
	c0.5,0.4,0.7,1,0.7,1.8c0,0.8-0.2,1.4-0.7,1.8c-0.5,0.5-1.2,0.7-2.1,0.7H111.4z"/>
<path class="st0" d="M128.2,137.7c-0.8-0.4-1.6-0.6-2.6-0.6c-1,0-1.9,0.2-2.7,0.7c-0.8,0.4-1.4,1-1.8,1.8c-0.4,0.8-0.6,1.7-0.6,2.8
	c0,1.1,0.2,2,0.7,2.8c0.4,0.8,1,1.4,1.8,1.9c0.8,0.4,1.6,0.7,2.6,0.7c1.2,0,2.2-0.3,3.1-0.9c0.8-0.6,1.4-1.4,1.6-2.4h-1.8
	c-0.2,0.6-0.5,1-1,1.4c-0.5,0.3-1.1,0.5-1.8,0.5c-0.9,0-1.7-0.3-2.3-0.8c-0.6-0.6-1-1.4-1-2.4h8.2c0-0.4,0.1-0.7,0.1-1
	c0-0.9-0.2-1.8-0.6-2.5C129.5,138.7,128.9,138.1,128.2,137.7z M122.3,141.6c0.1-1,0.4-1.7,1-2.3c0.6-0.5,1.3-0.8,2.2-0.8
	c0.6,0,1.1,0.1,1.6,0.4c0.5,0.2,0.9,0.6,1.2,1.1c0.3,0.5,0.4,1,0.4,1.7H122.3z"/>
<polygon class="st0" points="136.6,145.9 133.4,137.2 131.5,137.2 135.6,147.5 137.6,147.5 141.6,137.2 139.8,137.2 "/>
<path class="st0" d="M144.2,133.3c-0.3,0-0.6,0.1-0.8,0.3c-0.2,0.2-0.3,0.5-0.3,0.8s0.1,0.6,0.3,0.8c0.2,0.2,0.5,0.3,0.8,0.3
	c0.3,0,0.6-0.1,0.8-0.3c0.2-0.2,0.3-0.5,0.3-0.8s-0.1-0.6-0.3-0.8C144.7,133.4,144.5,133.3,144.2,133.3z"/>
<rect x="143.3" y="137.2" class="st0" width="1.7" height="10.3"/>
<path class="st0" d="M154.9,137.7c-0.7-0.4-1.6-0.6-2.6-0.6c-1,0-1.9,0.2-2.7,0.7c-0.8,0.4-1.4,1-1.8,1.8c-0.4,0.8-0.6,1.7-0.6,2.8
	c0,1.1,0.2,2,0.7,2.8c0.4,0.8,1,1.4,1.8,1.9c0.8,0.4,1.6,0.7,2.6,0.7c1.2,0,2.2-0.3,3.1-0.9c0.8-0.6,1.4-1.4,1.6-2.4h-1.8
	c-0.2,0.6-0.5,1-1,1.4c-0.5,0.3-1.1,0.5-1.8,0.5c-0.9,0-1.7-0.3-2.3-0.8c-0.6-0.6-1-1.4-1-2.4h8.2c0-0.4,0.1-0.7,0.1-1
	c0-0.9-0.2-1.8-0.6-2.5C156.2,138.7,155.7,138.1,154.9,137.7z M149,141.6c0.1-1,0.4-1.7,1-2.3c0.6-0.5,1.3-0.8,2.2-0.8
	c0.6,0,1.1,0.1,1.6,0.4c0.5,0.2,0.9,0.6,1.2,1.1c0.3,0.5,0.4,1,0.4,1.7H149z"/>
<polygon class="st0" points="169.2,145.9 166.7,137.2 164.9,137.2 162.4,145.9 160,137.2 158.3,137.2 161.5,147.5 163.3,147.5 
	165.7,139.4 168.2,147.5 170,147.5 173.2,137.2 171.5,137.2 "/>
<path class="st0" d="M181.7,143.2c-0.3-0.4-0.7-0.7-1.2-0.9c-0.5-0.2-1.1-0.4-1.8-0.6c-0.6-0.2-1-0.3-1.4-0.4
	c-0.3-0.1-0.6-0.3-0.8-0.5c-0.2-0.2-0.3-0.5-0.3-0.8c0-0.4,0.2-0.8,0.5-1c0.4-0.3,0.8-0.4,1.5-0.4c0.7,0,1.2,0.2,1.6,0.5
	c0.4,0.3,0.6,0.8,0.7,1.3h1.7c0-1-0.4-1.8-1.1-2.4c-0.7-0.6-1.6-0.9-2.8-0.9c-0.7,0-1.4,0.1-2,0.4c-0.6,0.2-1,0.6-1.3,1
	c-0.3,0.4-0.5,0.9-0.5,1.4c0,0.7,0.2,1.2,0.5,1.6c0.4,0.4,0.8,0.7,1.2,0.9c0.5,0.2,1.1,0.4,1.9,0.6c0.8,0.2,1.5,0.4,1.9,0.7
	c0.4,0.2,0.6,0.5,0.6,1c0,0.4-0.2,0.8-0.6,1.1c-0.4,0.3-0.9,0.4-1.5,0.4c-0.7,0-1.3-0.2-1.7-0.5c-0.4-0.3-0.7-0.7-0.7-1.3h-1.8
	c0,0.6,0.2,1.2,0.6,1.7c0.4,0.5,0.9,0.8,1.5,1.1c0.6,0.3,1.3,0.4,2.1,0.4c0.7,0,1.4-0.1,1.9-0.4c0.6-0.3,1-0.6,1.3-1.1
	c0.3-0.5,0.5-1,0.5-1.5C182.2,144.1,182.1,143.6,181.7,143.2z"/>
<path class="st0" d="M41.7,108.1c-1.3,0-2.5-0.3-3.6-0.9c-1.1-0.6-1.9-1.4-2.6-2.5c-0.6-1.1-0.9-2.3-0.9-3.6c0-1.3,0.3-2.6,0.9-3.6
	c0.6-1.1,1.5-1.9,2.6-2.5c1.1-0.6,2.3-0.9,3.6-0.9c1.3,0,2.5,0.3,3.5,0.9c1.1,0.6,1.9,1.4,2.5,2.5c0.6,1.1,0.9,2.3,0.9,3.6
	c0,1.3-0.3,2.6-0.9,3.6c-0.6,1.1-1.5,1.9-2.5,2.5C44.2,107.8,43,108.1,41.7,108.1z M41.7,105.1c1.1,0,2-0.4,2.6-1.1
	c0.7-0.7,1-1.7,1-2.9c0-1.2-0.3-2.2-1-2.9c-0.7-0.7-1.5-1.1-2.6-1.1c-1.1,0-2,0.4-2.7,1.1c-0.7,0.7-1,1.7-1,2.9c0,1.2,0.3,2.2,1,2.9
	C39.7,104.7,40.6,105.1,41.7,105.1z M55.5,104.9l2.4-7.8h3.6L57.6,108h-4.1l-3.9-10.9h3.6L55.5,104.9z M73.2,102.4
	c0,0.3,0,0.6-0.1,1h-7.6c0.1,0.7,0.3,1.2,0.6,1.6c0.4,0.4,0.9,0.5,1.4,0.5c0.8,0,1.4-0.4,1.7-1.1h3.6c-0.2,0.7-0.5,1.4-1,1.9
	c-0.5,0.6-1.1,1-1.8,1.3c-0.7,0.3-1.5,0.5-2.4,0.5c-1.1,0-2-0.2-2.9-0.7c-0.8-0.5-1.5-1.1-2-2c-0.5-0.8-0.7-1.8-0.7-3
	c0-1.1,0.2-2.1,0.7-3c0.5-0.8,1.1-1.5,2-2c0.8-0.5,1.8-0.7,2.9-0.7c1.1,0,2,0.2,2.8,0.7c0.8,0.4,1.5,1.1,1.9,1.9
	C72.9,100.3,73.2,101.3,73.2,102.4z M69.7,101.5c0-0.6-0.2-1-0.6-1.4c-0.4-0.3-0.9-0.5-1.5-0.5c-0.6,0-1,0.2-1.4,0.5
	c-0.4,0.3-0.6,0.8-0.7,1.4H69.7z M78.3,98.9c0.4-0.6,0.9-1.1,1.5-1.4c0.6-0.4,1.2-0.5,2-0.5v3.5h-0.9c-0.8,0-1.5,0.2-1.9,0.5
	c-0.4,0.4-0.6,1-0.6,1.9v5.1h-3.3V97.1h3.3V98.9z M87,105.3c0.4-0.4,0.6-0.5,0.6-0.5c1.3-1.1,2.3-1.9,3-2.6c0.7-0.7,1.4-1.4,1.9-2.1
	c0.5-0.7,0.8-1.5,0.8-2.2c0-0.5-0.1-1-0.4-1.3c-0.2-0.3-0.6-0.5-1.1-0.5c-0.5,0-0.9,0.2-1.2,0.6c-0.3,0.4-0.4,0.9-0.4,1.6h-3.2
	c0-1.1,0.3-2,0.7-2.8c0.5-0.7,1.1-1.3,1.8-1.6c0.7-0.4,1.6-0.5,2.5-0.5c1.6,0,2.7,0.4,3.5,1.2c0.8,0.8,1.2,1.8,1.2,3.1
	c0,1.4-0.5,2.7-1.4,3.9c-1,1.2-2.2,2.3-3.6,3.5h5.3v2.7H87V105.3z M102.2,104.9l-2.2,5.6h-2.1l1.1-5.6H102.2z M103.9,100.7
	c0-2.2,0.4-4,1.3-5.3c0.9-1.3,2.3-1.9,4.2-1.9c1.9,0,3.3,0.6,4.2,1.9c0.9,1.3,1.3,3.1,1.3,5.3c0,2.3-0.4,4.1-1.3,5.3
	c-0.9,1.3-2.3,1.9-4.2,1.9c-1.9,0-3.3-0.6-4.2-1.9C104.3,104.7,103.9,102.9,103.9,100.7z M111.6,100.7c0-1.3-0.1-2.3-0.4-3
	c-0.3-0.7-0.9-1.1-1.8-1.1c-0.9,0-1.5,0.4-1.8,1.1c-0.3,0.7-0.4,1.7-0.4,3c0,0.9,0.1,1.6,0.2,2.2c0.1,0.6,0.3,1,0.6,1.4
	c0.3,0.4,0.8,0.5,1.4,0.5c0.6,0,1.1-0.2,1.4-0.5c0.3-0.4,0.5-0.8,0.6-1.4C111.6,102.3,111.6,101.5,111.6,100.7z M116.7,100.7
	c0-2.2,0.4-4,1.3-5.3c0.9-1.3,2.3-1.9,4.2-1.9c1.9,0,3.3,0.6,4.2,1.9c0.9,1.3,1.3,3.1,1.3,5.3c0,2.3-0.4,4.1-1.3,5.3
	c-0.9,1.3-2.3,1.9-4.2,1.9c-1.9,0-3.3-0.6-4.2-1.9C117.1,104.7,116.7,102.9,116.7,100.7z M124.4,100.7c0-1.3-0.1-2.3-0.4-3
	c-0.3-0.7-0.9-1.1-1.8-1.1c-0.9,0-1.5,0.4-1.8,1.1c-0.3,0.7-0.4,1.7-0.4,3c0,0.9,0.1,1.6,0.2,2.2c0.1,0.6,0.3,1,0.6,1.4
	c0.3,0.4,0.8,0.5,1.4,0.5c0.6,0,1.1-0.2,1.4-0.5c0.3-0.4,0.5-0.8,0.6-1.4C124.3,102.3,124.4,101.5,124.4,100.7z M129.4,100.7
	c0-2.2,0.4-4,1.3-5.3c0.9-1.3,2.3-1.9,4.2-1.9c1.9,0,3.3,0.6,4.2,1.9c0.9,1.3,1.3,3.1,1.3,5.3c0,2.3-0.4,4.1-1.3,5.3
	c-0.9,1.3-2.3,1.9-4.2,1.9c-1.9,0-3.3-0.6-4.2-1.9C129.9,104.7,129.4,102.9,129.4,100.7z M137.2,100.7c0-1.3-0.1-2.3-0.4-3
	c-0.3-0.7-0.9-1.1-1.8-1.1c-0.9,0-1.5,0.4-1.8,1.1c-0.3,0.7-0.4,1.7-0.4,3c0,0.9,0.1,1.6,0.2,2.2c0.1,0.6,0.3,1,0.6,1.4
	c0.3,0.4,0.8,0.5,1.4,0.5c0.6,0,1.1-0.2,1.4-0.5c0.3-0.4,0.5-0.8,0.6-1.4C137.1,102.3,137.2,101.5,137.2,100.7z"/>
<path class="st0" d="M159.6,86.5l1.6,1c0.3,0.2,0.7-0.1,0.6-0.4l-0.4-1.8l1.4-1.2c0.3-0.2,0.1-0.7-0.2-0.7l-1.9-0.2l-0.7-1.7
	c-0.1-0.3-0.6-0.3-0.7,0l-0.7,1.7l-1.9,0.2c-0.3,0-0.5,0.5-0.2,0.7l1.4,1.2l-0.4,1.8c-0.1,0.3,0.3,0.6,0.6,0.4L159.6,86.5z"/>
<path class="st0" d="M155.3,74.6l3.2,0.9c0.6,0.2,1.1-0.4,0.8-1l-1.6-2.9l1.9-2.7c0.3-0.5-0.1-1.2-0.7-1.1l-3.3,0.6l-2-2.6
	c-0.4-0.5-1.1-0.3-1.2,0.3l-0.5,3.3l-3.1,1.1c-0.6,0.2-0.6,1-0.1,1.3l3,1.5l0.1,3.3c0,0.6,0.8,0.9,1.2,0.4L155.3,74.6z"/>
<g>
	<defs>
		<rect id="SVGID_1_" x="146.3" y="36" transform="matrix(0.866 -0.5 0.5 0.866 -2.7095 85.402)" width="23.4" height="23.4"/>
	</defs>
	<clipPath id="SVGID_00000183936152643427493880000000076925586704383149_">
		<use xlink:href="#SVGID_1_"  style="overflow:visible;"/>
	</clipPath>
	<g style="clip-path:url(#SVGID_00000183936152643427493880000000076925586704383149_);">
		<path class="st0" d="M160.6,52.2l4.7,0.1c0.9,0,1.3-1,0.7-1.6l-3.2-3.5l1.6-4.5c0.3-0.8-0.6-1.6-1.3-1.2l-4.3,2l-3.8-2.8
			c-0.7-0.5-1.7,0-1.6,0.9l0.6,4.7l-3.9,2.7c-0.7,0.5-0.5,1.6,0.4,1.8l4.7,0.9l1.4,4.5c0.3,0.8,1.4,0.9,1.8,0.2L160.6,52.2z"/>
	</g>
</g>
<path class="st0" d="M184.6,44.9l5.4,5.6c1,1,2.7,0.4,2.8-1.1l0.3-7.8l7-3.4c1.3-0.6,1.2-2.5-0.2-3l-7.3-2.7l-1.1-7.7
	c-0.2-1.4-2-1.9-2.9-0.8l-4.8,6.1l-7.7-1.4c-1.4-0.3-2.4,1.3-1.6,2.5l4.4,6.5l-3.7,6.9c-0.7,1.3,0.5,2.7,1.9,2.3L184.6,44.9z"/>
<path class="st2" d="M225.8,68.1l11.6,7c2.1,1.3,4.7-0.6,4.1-3l-3.1-13.1l10.2-8.9c1.9-1.6,0.9-4.7-1.6-4.9l-13.4-1.1l-5.3-12.4
	c-0.9-2.3-4.2-2.3-5.1,0L218,44l-13.4,1.1c-2.4,0.2-3.5,3.3-1.6,4.9l10.2,8.9L210.1,72c-0.6,2.4,2,4.3,4.1,3L225.8,68.1z"/>
<path class="st0" d="M203.3,71.6h-25.7v11.4c1.1-1.2,2.6-2.2,4.6-3c2-0.8,4.1-1.2,6.4-1.2c4.1,0,7.5,0.9,10.2,2.8
	c2.7,1.9,4.7,4.3,6,7.2c1.3,3,1.9,6.2,1.9,9.6c0,6.4-1.8,11.5-5.4,15.3c-3.6,3.7-8.7,5.6-15.3,5.6c-4.4,0-8.2-0.7-11.4-2.2
	c-3.2-1.5-5.7-3.7-7.5-6.3c-1.8-2.7-2.7-5.8-2.9-9.3h13.7c0.3,1.7,1.1,3.1,2.4,4.3c1.3,1.1,3,1.6,5.2,1.6c2.6,0,4.5-0.8,5.8-2.5
	c1.3-1.6,1.9-3.8,1.9-6.6c0-2.7-0.7-4.7-2-6.2s-3.2-2.1-5.8-2.1c-1.9,0-3.4,0.5-4.6,1.4c-1.2,0.9-2,2.1-2.4,3.5h-13.6V59.2h38.4
	V71.6z"/>
</svg>
